<svg version="1.1" xmlns="http://www.w3.org/2000/svg" xmlns:xlink="http://www.w3.org/1999/xlink" width="20" height="20" viewBox="0 0 20 20">
<g id="ChicletSlicer">
<path id="Фігура-24" d="M3.057,1.984 C3.057,1.984 7.948,1.984 7.948,1.984 C8.517,1.984 8.978,2.445 8.978,3.014 C8.978,3.014 8.978,7.905 8.978,7.905 C8.978,8.473 8.517,8.934 7.948,8.934 C7.948,8.934 3.057,8.934 3.057,8.934 C2.489,8.934 2.028,8.473 2.028,7.905 C2.028,7.905 2.028,3.014 2.028,3.014 C2.028,2.445 2.489,1.984 3.057,1.984 z" fill="#4D82B8" />
<path id="Фігура-24-копія" d="M12.057,1.984 C12.057,1.984 16.948,1.984 16.948,1.984 C17.517,1.984 17.978,2.445 17.978,3.014 C17.978,3.014 17.978,7.905 17.978,7.905 C17.978,8.473 17.517,8.934 16.948,8.934 C16.948,8.934 12.057,8.934 12.057,8.934 C11.489,8.934 11.028,8.473 11.028,7.905 C11.028,7.905 11.028,3.014 11.028,3.014 C11.028,2.445 11.489,1.984 12.057,1.984 z" fill="#D66244" />
<path id="Фігура-24-копія-" d="M3.057,10.984 C3.057,10.984 7.948,10.984 7.948,10.984 C8.517,10.984 8.978,11.445 8.978,12.014 C8.978,12.014 8.978,16.905 8.978,16.905 C8.978,17.473 8.517,17.934 7.948,17.934 C7.948,17.934 3.057,17.934 3.057,17.934 C2.489,17.934 2.028,17.473 2.028,16.905 C2.028,16.905 2.028,12.014 2.028,12.014 C2.028,11.445 2.489,10.984 3.057,10.984 z" fill="#8BAED1" />
<path id="Фігура-24-копія-" d="M12.057,10.984 C12.057,10.984 16.948,10.984 16.948,10.984 C17.517,10.984 17.978,11.445 17.978,12.014 C17.978,12.014 17.978,16.905 17.978,16.905 C17.978,17.473 17.517,17.934 16.948,17.934 C16.948,17.934 12.057,17.934 12.057,17.934 C11.489,17.934 11.028,17.473 11.028,16.905 C11.028,16.905 11.028,12.014 11.028,12.014 C11.028,11.445 11.489,10.984 12.057,10.984 z" fill="#70A593" />
</g>
</svg>
